<svg id="e21PSYCuGAK1" xmlns="http://www.w3.org/2000/svg" xmlns:xlink="http://www.w3.org/1999/xlink" viewBox="0 0 40 60" shape-rendering="geometricPrecision" text-rendering="geometricPrecision" project-id="740c0fa6eadf4004805a2818ea338fe0" export-id="a4246fd5e2af4354963202e1263b4877" cached="false">
    <g transform="matrix(.1315 0 0 0.134665 7.139194-51.073387)">
        <g transform="translate(-145.741025 76.821534)">
            <path d="M123.8,98.9C69.2,98.9,25,143.1,25,197.7v98.8h98.8h98.8v-98.8c.1-54.5-44.2-98.8-98.8-98.8v0Z" transform="matrix(1.469123 0 0 0.655932 61.66428 553.507182)" opacity="0.7" clip-rule="evenodd" fill="#75350d" fill-rule="evenodd"/>
            <path d="M123.6,120.7c-42.4,0-76.8,34.4-76.8,76.8v0v76.8h76.8v0c42.4,0,76.8-34.4,76.8-76.8s-34.4-76.8-76.8-76.8v0Z" transform="matrix(1.149961 0 0 1.15 101.406645 295.094006)" opacity="0.7" clip-rule="evenodd" fill="#404083" fill-rule="evenodd"/>
            <path d="M56.7,197.5v67h67c36.9,0,66.9-30,66.9-66.9c0-37-30-66.9-66.9-66.9-37.1-.1-67,29.8-67,66.8v0Z" transform="matrix(-.89 0 0 0.89385 353.590332 189.945191)" opacity="0.5" clip-rule="evenodd" fill="#005238" fill-rule="evenodd"/>
        </g>
    </g>
    <path d="M56.7,197.5v67h67c36.9,0,66.9-30,66.9-66.9c0-37-30-66.9-66.9-66.9-37.1-.1-67,29.8-67,66.8v0Z" transform="matrix(-.066686 0 0 0.069498 28.245724-5.096883)" clip-rule="evenodd" fill="#fff" fill-rule="evenodd"/>
</svg>
